<svg xmlns="http://www.w3.org/2000/svg" viewBox="0 0 512 512" width="512" height="512">
  <!-- Background -->
  <rect width="512" height="512" fill="#1a1a1a" rx="100"/>
  
  <!-- Circular background for icon -->
  <circle cx="256" cy="256" r="180" fill="#2d2d2d"/>
  
  <!-- Speedometer arc -->
  <path d="M 180 380 A 150 150 0 1 1 332 380" fill="none" stroke="#00ff88" stroke-width="20" stroke-linecap="round"/>
  
  <!-- Tick marks -->
  <line x1="256" y1="130" x2="256" y2="150" stroke="#00ff88" stroke-width="6"/>
  <line x1="356" y1="160" x2="342" y2="175" stroke="#00ff88" stroke-width="6"/>
  <line x1="402" y1="256" x2="382" y2="256" stroke="#00ff88" stroke-width="6"/>
  <line x1="356" y1="352" x2="342" y2="337" stroke="#00ff88" stroke-width="6"/>
  <line x1="156" y1="352" x2="170" y2="337" stroke="#00ff88" stroke-width="6"/>
  <line x1="110" y1="256" x2="130" y2="256" stroke="#00ff88" stroke-width="6"/>
  <line x1="156" y1="160" x2="170" y2="175" stroke="#00ff88" stroke-width="6"/>
  
  <!-- Needle -->
  <g transform="rotate(45 256 256)">
    <line x1="256" y1="256" x2="256" y2="160" stroke="#ff4444" stroke-width="8" stroke-linecap="round"/>
    <circle cx="256" cy="256" r="15" fill="#ff4444"/>
  </g>
  
  <!-- Center circle -->
  <circle cx="256" cy="256" r="12" fill="#1a1a1a"/>
  
  <!-- OBD text -->
  <text x="256" y="320" text-anchor="middle" font-family="Arial, sans-serif" font-size="40" font-weight="bold" fill="#00ff88">OBD2</text>
  
  <!-- Bluetooth icon -->
  <g transform="translate(235, 360)">
    <path d="M 13 0 L 13 15 L 0 8 L 13 0 L 26 8 L 13 15 L 26 23 L 13 30 L 13 15 L 0 23 Z" fill="#00aaff" opacity="0.8"/>
  </g>
</svg>
